<svg xmlns="http://www.w3.org/2000/svg" width="360" height="520" viewBox="0 0 180 260" role="img" aria-labelledby="t d">
<title id="t">鐵面孔目・裴宣水墨立繪</title><desc id="d">第 19 名天罡英雄的程式化水墨人物卡。</desc>
<rect width="180" height="260" rx="18" fill="#f8eaea"/><path d="M10 36 Q80 8 170 30 M6 210 Q96 236 176 198" fill="none" stroke="#2d2424" stroke-width="2" opacity=".18"/>
<circle cx="90" cy="68" r="34" fill="#2d2424" opacity=".96"/><path d="M58 62 Q90 10 122 63 Q106 49 90 46 Q72 48 58 62" fill="#2d2424"/>
<path d="M19 188 Q90 117 161 188 L162 226 L18 226 Z" fill="#2d2424" opacity=".94"/>
<path d="M75 70 Q90 78 105 70" fill="none" stroke="#f8eaea" stroke-width="3" opacity=".55"/><circle cx="78" cy="64" r="2.5" fill="#f8eaea"/><circle cx="102" cy="64" r="2.5" fill="#f8eaea"/>
<path d="M54 146 Q142 92 154 30" fill="none" stroke="#b91c1c" stroke-width="6"/><path d="M54 146 L154 30" stroke="#b91c1c" stroke-width="2"/>
<circle cx="148" cy="183" r="18" fill="none" stroke="#b91c1c" stroke-width="4"/><text x="148" y="190" text-anchor="middle" font-size="18" font-family="serif" fill="#b91c1c">裴</text>
<text x="16" y="238" font-size="13" font-weight="700" font-family="serif" fill="#2d2424">19 鐵面孔目</text><text x="164" y="238" text-anchor="end" font-size="16" font-family="serif" fill="#b91c1c">裴宣</text>
</svg>